PathFileType	4	(X/Y/Z)	RBDS04static.trc
DataRate	CameraRate	NumFrames	NumMarkers	Units	OrigDataRate	OrigDataStartFrame	OrigNumFrames
150.000000	150.000000	4	48	mm	150.000000	112	150
Frame#	Time	L.Ankle			L.Ankle.Medial			L.ASIS			L.GTR			L.Heel.Bottom			L.Heel.Lateral			L.Heel.Top			L.HF			L.Iliac.Crest			L.Knee			L.Knee.Medial			L.MT1			L.MT2			L.MT5			L.PSIS			L.Shank.Bottom.Lateral			L.Shank.Bottom.Medial			L.Shank.Top.Lateral			L.Shank.Top.Medial			L.Thigh.Bottom.Lateral			L.Thigh.Bottom.Medial			L.Thigh.Top.Lateral			L.Thigh.Top.Medial			L.TT			R.Ankle			R.Ankle.Medial			R.ASIS			R.GTR			R.Heel.Bottom			R.Heel.Lateral			R.Heel.Top			R.HF			R.Iliac.Crest			R.Knee			R.Knee.Medial			R.MT1			R.MT2			R.MT5			R.PSIS			R.Shank.Bottom.Lateral			R.Shank.Bottom.Medial			R.Shank.Top.Lateral			R.Shank.Top.Medial			R.Thigh.Bottom.Lateral			R.Thigh.Bottom.Medial			R.Thigh.Top.Lateral			R.Thigh.Top.Medial			R.TT			
		X1	Y1	Z1	X2	Y2	Z2	X3	Y3	Z3	X4	Y4	Z4	X5	Y5	Z5	X6	Y6	Z6	X7	Y7	Z7	X8	Y8	Z8	X9	Y9	Z9	X10	Y10	Z10	X11	Y11	Z11	X12	Y12	Z12	X13	Y13	Z13	X14	Y14	Z14	X15	Y15	Z15	X16	Y16	Z16	X17	Y17	Z17	X18	Y18	Z18	X19	Y19	Z19	X20	Y20	Z20	X21	Y21	Z21	X22	Y22	Z22	X23	Y23	Z23	X24	Y24	Z24	X25	Y25	Z25	X26	Y26	Z26	X27	Y27	Z27	X28	Y28	Z28	X29	Y29	Z29	X30	Y30	Z30	X31	Y31	Z31	X32	Y32	Z32	X33	Y33	Z33	X34	Y34	Z34	X35	Y35	Z35	X36	Y36	Z36	X37	Y37	Z37	X38	Y38	Z38	X39	Y39	Z39	X40	Y40	Z40	X41	Y41	Z41	X42	Y42	Z42	X43	Y43	Z43	X44	Y44	Z44	X45	Y45	Z45	X46	Y46	Z46	X47	Y47	Z47	X48	Y48	Z48	

113	0.7466666666666667	694.1017456054688	100.7823944091797	1055.102294921875	715.2500610351563	105.0101928710938	1134.243774414063	837.4421997070313	977.9375	1131.9326171875	747.0405883789063	896.4310302734375	1064.054321289063	629.6622314453125	38.83012771606445	1086.571655273438	662.4161376953125	58.4141731262207	1046.553100585938	638.58349609375	85.58407592773438	1087.597534179688	700.6295166015625	451.3554992675781	1050.450927734375	762.3878784179688	1039.478515625	1086.41748046875	710.9204711914063	516.67529296875	1056.797607421875	703.2066040039063	504.9296875	1170.9228515625	842.7825927734375	61.37767028808594	1129.282348632813	841.7334594726563	65.88361358642578	1081.755737304688	816.5106201171875	49.63771438598633	1028.265502929688	668.723876953125	1000.740112304688	1188.871948242188	695.818115234375	184.4517822265625	1047.507568359375	652.8143310546875	179.3978271484375	1074.36279296875	686.3117065429688	264.2106018066406	1038.507080078125	641.6277465820313	263.2058715820313	1067.626586914063	728.4570922851563	632.4662475585938	1043.204956054688	666.2056274414063	634.8099975585938	1081.884155273438	727.15283203125	743.0280151367188	1042.115234375	671.2343139648438	745.1258544921875	1082.973754882813	750.441650390625	430.5001525878906	1097.962036132813	692.7156982421875	95.78559112548828	1398.904052734375	714.7037353515625	110.9914474487305	1320.508178710938	831.8668212890625	975.3562622070313	1335.707763671875	763.6838989257813	893.507080078125	1400.558959960938	628.425537109375	39.15390014648438	1364.7900390625	660.264892578125	56.37641906738281	1405.314086914063	636.0210571289063	84.75314331054688	1364.535888671875	713.2896118164063	450.0431823730469	1415.564331054688	759.0547485351563	1029.6767578125	1376.3310546875	711.25634765625	526.7422485351563	1405.392456054688	715.5068359375	506.8393249511719	1291.570556640625	842.0083618164063	63.35607528686523	1332.841552734375	855.7615356445313	64.64438629150391	1375.32666015625	814.192626953125	53.01246643066406	1430.358520507813	666.6494140625	1002.320861816406	1274.239990234375	685.8378295898438	179.0457611083984	1410.000366210938	648.7783813476563	181.6278686523438	1370.033081054688	676.6456298828125	258.9596557617188	1421.135498046875	642.0136108398438	260.6079406738281	1379.578857421875	720.6998901367188	618.4920654296875	1413.795043945313	664.7347412109375	618.7340087890625	1362.622314453125	714.1575927734375	728.9617309570313	1417.631103515625	663.51416015625	728.5936889648438	1368.464233398438	762.379150390625	432.7647705078125	1360.543579101563	
114	0.7533333333333334	694.1090698242188	100.7843017578125	1055.100463867188	715.2503662109375	105	1134.247436523438	837.45703125	977.9288940429688	1131.941772460938	747.054931640625	896.4243774414063	1064.053833007813	629.6561889648438	38.83421325683594	1086.574584960938	662.4067993164063	58.40712356567383	1046.56298828125	638.5720825195313	85.57780456542969	1087.588989257813	700.6312866210938	451.3531188964844	1050.454223632813	762.3939208984375	1039.472900390625	1086.419311523438	710.9077758789063	516.677001953125	1056.808837890625	703.203369140625	504.9317932128906	1170.922729492188	842.7800903320313	61.3779296875	1129.283325195313	841.73583984375	65.88372039794922	1081.755615234375	816.5128173828125	49.63726043701172	1028.263549804688	668.7312622070313	1000.736694335938	1188.862182617188	695.8186645507813	184.4458770751953	1047.506225585938	652.8065795898438	179.3983612060547	1074.377685546875	686.3095703125	264.2157897949219	1038.513305664063	641.6161499023438	263.2037353515625	1067.630249023438	728.46142578125	632.4605102539063	1043.216186523438	666.2086181640625	634.80859375	1081.892456054688	727.1497192382813	743.03515625	1042.123168945313	671.2412719726563	745.13037109375	1082.974609375	750.437744140625	430.4943237304688	1097.9609375	692.7122192382813	95.79869079589844	1398.900268554688	714.715087890625	111.0033416748047	1320.507690429688	831.8587646484375	975.3521728515625	1335.720825195313	763.6942138671875	893.5107421875	1400.570678710938	628.4229125976563	39.15692901611328	1364.799194335938	660.2590942382813	56.38624954223633	1405.317016601563	636.0248413085938	84.75859832763672	1364.530639648438	713.2923583984375	450.0437316894531	1415.574462890625	759.0567626953125	1029.691650390625	1376.340698242188	711.2662353515625	526.7449951171875	1405.3994140625	715.511474609375	506.8365173339844	1291.583618164063	842.00146484375	63.35583114624023	1332.843872070313	855.7592163085938	64.65342712402344	1375.346557617188	814.1843872070313	53.01203155517578	1430.353515625	666.6558227539063	1002.312622070313	1274.236206054688	685.83837890625	179.0460662841797	1410.005004882813	648.7772827148438	181.6256408691406	1370.026977539063	676.6429443359375	258.9637756347656	1421.13134765625	642.0054321289063	260.6148376464844	1379.577270507813	720.7089233398438	618.497802734375	1413.80322265625	664.7471313476563	618.7340698242188	1362.62939453125	714.1659545898438	728.9700317382813	1417.635498046875	663.5130615234375	728.5973510742188	1368.470703125	762.3793334960938	432.7637634277344	1360.54541015625	
115	0.76	694.0980224609375	100.7775650024414	1055.093139648438	715.2489624023438	105.0168533325195	1134.248779296875	837.461181640625	977.92431640625	1131.95166015625	747.045654296875	896.4196166992188	1064.060302734375	629.6591186523438	38.83155059814453	1086.569213867188	662.4055786132813	58.41514587402344	1046.558837890625	638.5755615234375	85.58657073974609	1087.590576171875	700.625732421875	451.3541870117188	1050.4775390625	762.4219970703125	1039.469116210938	1086.426391601563	710.8965454101563	516.6673583984375	1056.808349609375	703.2051391601563	504.9269409179688	1170.928833007813	842.7694702148438	61.39347076416016	1129.289916992188	841.7391357421875	65.88720703125	1081.747680664063	816.5140991210938	49.64236450195313	1028.259033203125	668.74169921875	1000.734069824219	1188.874389648438	695.8075561523438	184.4525756835938	1047.501831054688	652.8014526367188	179.3920440673828	1074.361938476563	686.3109130859375	264.2114562988281	1038.511474609375	641.6107788085938	263.200927734375	1067.633666992188	728.447021484375	632.461181640625	1043.216674804688	666.212158203125	634.814697265625	1081.903198242188	727.141845703125	743.03173828125	1042.13232421875	671.2422485351563	745.1288452148438	1082.984252929688	750.4277954101563	430.4961242675781	1097.959350585938	692.7140502929688	95.79785919189453	1398.91796875	714.7117309570313	111	1320.513061523438	831.8721923828125	975.3550415039063	1335.721069335938	763.6944580078125	893.5140991210938	1400.577270507813	628.4185791015625	39.16279983520508	1364.786743164063	660.2515258789063	56.39800262451172	1405.312622070313	636.0231323242188	84.75778961181641	1364.534912109375	713.2884521484375	450.0565185546875	1415.5712890625	759.0557861328125	1029.69580078125	1376.337890625	711.2685546875	526.7437744140625	1405.406860351563	715.5021362304688	506.8409118652344	1291.589477539063	842.0098876953125	63.36185073852539	1332.849853515625	855.7627563476563	64.65805053710938	1375.338134765625	814.1868286132813	53.0195198059082	1430.3564453125	666.6566162109375	1002.319519042969	1274.238647460938	685.832763671875	179.0508575439453	1410.010498046875	648.7857055664063	181.6272430419922	1370.031005859375	676.6408081054688	258.9685974121094	1421.137451171875	642.0067138671875	260.6124267578125	1379.57470703125	720.7142333984375	618.4957885742188	1413.80517578125	664.7393798828125	618.7325439453125	1362.631591796875	714.1732788085938	728.973876953125	1417.646728515625	663.5274658203125	728.5989990234375	1368.471923828125	762.3801879882813	432.7857666015625	1360.553833007813	
116	0.7666666666666667	694.0928955078125	100.7888107299805	1055.087280273438	715.24755859375	105.0130844116211	1134.252319335938	837.4747314453125	977.921875	1131.953247070313	747.0534057617188	896.4268188476563	1064.071411132813	629.6553344726563	38.82884216308594	1086.572875976563	662.4092407226563	58.40645599365234	1046.55712890625	638.5737915039063	85.57806396484375	1087.585327148438	700.617919921875	451.3560180664063	1050.47607421875	762.4329223632813	1039.461059570313	1086.422729492188	710.895263671875	516.6817016601563	1056.809448242188	703.1964721679688	504.9300537109375	1170.927612304688	842.770751953125	61.386474609375	1129.293090820313	841.7328491210938	65.88542938232422	1081.752685546875	816.517333984375	49.63569641113281	1028.261596679688	668.7479858398438	1000.732849121094	1188.864990234375	695.7977294921875	184.4587707519531	1047.506591796875	652.7971801757813	179.3951416015625	1074.36669921875	686.284423828125	264.2150573730469	1038.510498046875	641.609375	263.2029418945313	1067.630615234375	728.4408569335938	632.4557495117188	1043.22314453125	666.2013549804688	634.8087768554688	1081.891723632813	727.14404296875	743.0310668945313	1042.1259765625	671.2444458007813	745.13330078125	1082.989501953125	750.4161987304688	430.5009460449219	1097.96435546875	692.71142578125	95.80625915527344	1398.911743164063	714.7169189453125	111.0061111450195	1320.5078125	831.8840942382813	975.3566284179688	1335.72509765625	763.7053833007813	893.51123046875	1400.570678710938	628.4195556640625	39.16234970092773	1364.796875	660.2562255859375	56.38885116577148	1405.320068359375	636.0232543945313	84.76002502441406	1364.53173828125	713.2981567382813	450.0477905273438	1415.584594726563	759.0621948242188	1029.698974609375	1376.338012695313	711.27685546875	526.7478637695313	1405.39306640625	715.5113525390625	506.8326416015625	1291.589721679688	842.006591796875	63.3627815246582	1332.861694335938	855.7598266601563	64.654052734375	1375.339477539063	814.1845092773438	53.01813125610352	1430.355346679688	666.6636962890625	1002.313232421875	1274.240844726563	685.8355712890625	179.0541076660156	1410.009887695313	648.782470703125	181.624755859375	1370.025634765625	676.638427734375	258.96728515625	1421.133056640625	642.0061645507813	260.6112365722656	1379.578369140625	720.7239379882813	618.4984741210938	1413.80322265625	664.7599487304688	618.7341918945313	1362.640014648438	714.17919921875	728.97607421875	1417.64208984375	663.5382690429688	728.606201171875	1368.480834960938	762.396240234375	432.7858581542969	1360.55029296875	
